<?xml version="1.0" encoding="UTF-8"?>
<svg xmlns="http://www.w3.org/2000/svg" width="66" height="91" viewBox="0 0 66 91" fill="none">
  <path d="M49.3752 0.23999V8.46919H57.6044V16.6984H65.8323V0.23999H49.3752Z" fill="#EAEAEA"></path>
  <path d="M24.6876 0.23999V8.46919H32.9168V16.6984H41.146V0.23999H24.6876Z" fill="#EAEAEA"></path>
  <path d="M0 0.23999V8.46919H8.2292V16.6984H16.4584V0.23999H0Z" fill="#EAEAEA"></path>
  <path d="M0 24.9276V33.1568H8.2292V41.386H16.4584V24.9276H0Z" fill="#EAEAEA"></path>
  <path d="M24.6876 24.9276V33.1568H32.9168V41.386H41.146V24.9276H24.6876Z" fill="#EAEAEA"></path>
  <path d="M0 49.6152V57.8444H8.2292V66.0736H16.4584V49.6152H0Z" fill="#EAEAEA"></path>
  <path d="M24.6876 49.6152V57.8444H32.9168V66.0736H41.146V49.6152H24.6876Z" fill="#EAEAEA"></path>
  <path d="M49.3752 74.3015V82.5307H57.6044V90.7599H65.8323V74.3015H49.3752Z" fill="#EAEAEA"></path>
  <path d="M24.6876 74.3015V82.5307H32.9168V90.7599H41.146V74.3015H24.6876Z" fill="#EAEAEA"></path>
  <path d="M0 74.3015V82.5307H8.2292V90.7599H16.4584V74.3015H0Z" fill="#EAEAEA"></path>
</svg>
